<svg width="53" height="53" viewBox="0 0 53 53" fill="none" xmlns="http://www.w3.org/2000/svg">
<path d="M29.2049 3.64321C29.1314 3.54647 29.0313 3.46917 28.9146 3.41913C28.798 3.36908 28.6689 3.34807 28.5405 3.3582H24.8526C24.4866 3.3582 24.2832 3.45733 24.1883 3.64321C24.0072 3.92635 23.8573 4.22522 23.7408 4.53542C23.7408 4.7213 24.0391 4.82044 24.4052 4.82044H28.9202C29.2863 4.82044 29.571 4.68413 29.5845 4.53542C29.477 4.22408 29.3315 3.92479 29.1507 3.64321M27.0762 4.63456H26.2085C26.1271 4.63456 26.0593 4.63456 26.0729 4.5726C26.0972 4.50377 26.129 4.43734 26.1678 4.37433C26.1678 4.37433 26.1678 4.37433 26.3034 4.37433H27.1033C27.1246 4.36542 27.1477 4.36081 27.1711 4.36081C27.1945 4.36081 27.2177 4.36542 27.2389 4.37433C27.2796 4.43648 27.3115 4.5031 27.3338 4.5726C27.3338 4.5726 27.3338 4.63456 27.1983 4.63456" fill="white"/>
<path d="M28.5406 0H24.8527C24.6765 0 24.5075 0.0639728 24.3829 0.177845C24.2583 0.291717 24.1883 0.446162 24.1883 0.607201V2.47837C24.1918 2.63725 24.2634 2.78853 24.3876 2.89974C24.5118 3.01095 24.6788 3.07322 24.8527 3.07318H28.5812C28.748 3.06386 28.9048 2.99747 29.0203 2.88724C29.1359 2.77701 29.2018 2.63102 29.2049 2.47837V0.607201C29.2049 0.527462 29.1877 0.448504 29.1544 0.374835C29.121 0.301166 29.072 0.234229 29.0103 0.177845C28.9486 0.121461 28.8754 0.0767352 28.7948 0.0462204C28.7142 0.0157057 28.6278 0 28.5406 0ZM24.8527 0.73112H25.978V1.84639H24.8527V0.73112ZM28.3914 2.31728H24.934V2.10662H28.4456L28.3914 2.31728ZM28.3914 1.85878H26.3441V1.64812H28.4456L28.3914 1.85878ZM28.3914 1.40028H26.3441V1.23919H28.4456L28.3914 1.40028ZM28.3914 0.941782H26.3441V0.73112H28.4456L28.3914 0.941782Z" fill="white"/>
<path d="M29.2049 28.8483C29.1314 28.7515 29.0313 28.6742 28.9146 28.6242C28.798 28.5741 28.6689 28.5531 28.5405 28.5632H24.8526C24.4866 28.5632 24.2832 28.6624 24.1883 28.8483C24.0072 29.1314 23.8573 29.4303 23.7408 29.7405C23.7408 29.9263 24.0391 30.0255 24.4052 30.0255H28.9202C29.2863 30.0255 29.571 29.8892 29.5845 29.7405C29.477 29.4291 29.3315 29.1298 29.1507 28.8483M27.0762 29.8396H26.2085C26.1271 29.8396 26.0593 29.8396 26.0729 29.7776C26.0972 29.7088 26.129 29.6424 26.1678 29.5794C26.1678 29.5794 26.1678 29.5794 26.3034 29.5794H27.1033C27.1246 29.5705 27.1477 29.5658 27.1711 29.5658C27.1945 29.5658 27.2177 29.5705 27.2389 29.5794C27.2796 29.6415 27.3115 29.7081 27.3338 29.7776C27.3338 29.7776 27.3338 29.8396 27.1983 29.8396" fill="white"/>
<path d="M28.5406 25.2051H24.8527C24.6788 25.205 24.5118 25.2673 24.3876 25.3785C24.2634 25.4897 24.1918 25.641 24.1883 25.7999V27.7082C24.1883 27.8693 24.2583 28.0237 24.3829 28.1376C24.5075 28.2514 24.6765 28.3154 24.8527 28.3154H28.5812C28.7574 28.3154 28.9264 28.2514 29.051 28.1376C29.1756 28.0237 29.2456 27.8693 29.2456 27.7082V25.8123C29.242 25.6534 29.1705 25.5021 29.0463 25.3909C28.9221 25.2797 28.7551 25.2174 28.5812 25.2174M24.8527 25.9362H25.978V27.0514H24.8527V25.9362ZM28.3914 27.5223H24.934V27.2621H28.4456L28.3914 27.5223ZM28.3914 27.0638H26.3441V26.8532H28.4456L28.3914 27.0638ZM28.3914 26.6053H26.3441V26.3947H28.4456L28.3914 26.6053ZM28.3914 26.1468H26.3441V25.9362H28.4456L28.3914 26.1468Z" fill="white"/>
<path d="M29.2049 51.8228C29.1314 51.726 29.0313 51.6487 28.9146 51.5987C28.798 51.5486 28.6689 51.5276 28.5405 51.5378H24.8526C24.4866 51.5378 24.2832 51.6369 24.1883 51.8228C24.0072 52.1059 23.8573 52.4048 23.7408 52.715C23.7408 52.9009 24.0391 53 24.4052 53H28.9202C29.2863 53 29.571 52.8637 29.5845 52.715C29.477 52.4036 29.3315 52.1044 29.1507 51.8228M27.0762 52.8141H26.2085C26.1271 52.8141 26.0593 52.8141 26.0729 52.7522C26.0972 52.6833 26.129 52.6169 26.1678 52.5539C26.1678 52.5539 26.1678 52.5539 26.3034 52.5539H27.1033C27.1246 52.545 27.1477 52.5404 27.1711 52.5404C27.1945 52.5404 27.2177 52.545 27.2389 52.5539C27.2796 52.616 27.3115 52.6827 27.3338 52.7522C27.3338 52.7522 27.3338 52.8141 27.1983 52.8141" fill="white"/>
<path d="M28.5406 48.1796H24.8527C24.6765 48.1796 24.5075 48.2435 24.3829 48.3574C24.2583 48.4713 24.1883 48.6257 24.1883 48.7868V50.6827C24.1883 50.7625 24.2055 50.8414 24.2389 50.9151C24.2723 50.9888 24.3212 51.0557 24.3829 51.1121C24.4446 51.1685 24.5178 51.2132 24.5984 51.2437C24.679 51.2742 24.7654 51.2899 24.8527 51.2899H28.5812C28.6685 51.2899 28.7549 51.2742 28.8355 51.2437C28.9161 51.2132 28.9893 51.1685 29.051 51.1121C29.1127 51.0557 29.1616 50.9888 29.195 50.9151C29.2284 50.8414 29.2456 50.7625 29.2456 50.6827V48.7744C29.2456 48.6133 29.1756 48.4589 29.051 48.345C28.9264 48.2311 28.7574 48.1672 28.5812 48.1672M24.8527 48.9107H25.978V50.026H24.8527V48.9107ZM28.3914 50.4968H24.934V50.2862H28.4456L28.3914 50.4968ZM28.3914 50.0383H26.3441V49.8277H28.4456L28.3914 50.0383ZM28.3914 49.5798H26.3441V49.3692H28.4456L28.3914 49.5798ZM28.3914 49.1213H26.3441V48.9107H28.4456L28.3914 49.1213Z" fill="white"/>
<path d="M5.49117 16.0227C5.41768 15.9259 5.31754 15.8486 5.20089 15.7986C5.08423 15.7486 4.9552 15.7275 4.82681 15.7377H1.11179C0.745715 15.7377 0.542338 15.8368 0.447429 16.0227C0.266358 16.3058 0.116481 16.6047 0 16.9149C0 17.1008 0.298286 17.1999 0.664364 17.1999H5.26068C5.62676 17.1999 5.91149 17.0636 5.92505 16.9149C5.81752 16.6035 5.67198 16.3043 5.49117 16.0227ZM3.41673 17.014H2.42696C2.34561 17.014 2.27782 17.014 2.29138 16.9521C2.31566 16.8832 2.34746 16.8168 2.38629 16.7538C2.38629 16.7538 2.38629 16.7538 2.52187 16.7538H3.32182C3.34309 16.7449 3.36622 16.7403 3.38961 16.7403C3.41301 16.7403 3.43614 16.7449 3.45741 16.7538C3.4981 16.8159 3.52999 16.8826 3.55232 16.9521C3.55232 16.9521 3.55231 17.014 3.41673 17.014Z" fill="white"/>
<path d="M4.82683 12.3919H1.11181C0.935612 12.3919 0.766629 12.4558 0.642036 12.5697C0.517444 12.6836 0.447449 12.838 0.447449 12.9991V14.8702C0.447449 15.0313 0.517444 15.1857 0.642036 15.2996C0.766629 15.4135 0.935612 15.4774 1.11181 15.4774H4.82683C5.00303 15.4774 5.17201 15.4135 5.29661 15.2996C5.4212 15.1857 5.49119 15.0313 5.49119 14.8702V12.9867C5.49119 12.8256 5.4212 12.6712 5.29661 12.5573C5.17201 12.4434 5.00303 12.3795 4.82683 12.3795M1.19316 13.1106H2.31852V14.2259H1.19316V13.1106ZM4.73192 14.6967H1.22028V14.4985H4.74548L4.73192 14.6967ZM4.73192 14.2382H2.63036V14.0276H4.73192V14.2382ZM4.73192 13.7797H2.63036V13.631H4.73192V13.7797ZM4.73192 13.3212H2.63036V13.1106H4.73192V13.3212Z" fill="white"/>
<path d="M52.5254 16.0227C52.4519 15.9259 52.3518 15.8486 52.2351 15.7986C52.1185 15.7486 51.9894 15.7275 51.861 15.7377H48.146C47.78 15.7377 47.5766 15.8368 47.4817 16.0227C47.3006 16.3058 47.1507 16.6047 47.0342 16.9149C47.0342 17.1008 47.3325 17.1999 47.6986 17.1999H52.2949C52.661 17.1999 52.9457 17.0636 52.9593 16.9149C52.8518 16.6035 52.7062 16.3043 52.5254 16.0227ZM50.451 17.014H49.4612C49.3799 17.014 49.3121 17.014 49.3256 16.9521C49.3499 16.8832 49.3817 16.8168 49.4205 16.7538C49.4205 16.7538 49.4205 16.7538 49.5561 16.7538H50.3561C50.3773 16.7449 50.4005 16.7403 50.4239 16.7403C50.4473 16.7403 50.4704 16.7449 50.4916 16.7538C50.5323 16.8159 50.5642 16.8826 50.5866 16.9521C50.5866 16.9521 50.5866 17.014 50.451 17.014Z" fill="white"/>
<path d="M51.8611 12.3919H48.1461C47.9699 12.3919 47.8009 12.4558 47.6763 12.5697C47.5517 12.6836 47.4818 12.838 47.4818 12.9991V14.8702C47.4818 15.0313 47.5517 15.1857 47.6763 15.2996C47.8009 15.4135 47.9699 15.4774 48.1461 15.4774H51.8611C52.0373 15.4774 52.2063 15.4135 52.3309 15.2996C52.4555 15.1857 52.5255 15.0313 52.5255 14.8702V12.9867C52.5255 12.8256 52.4555 12.6712 52.3309 12.5573C52.2063 12.4434 52.0373 12.3795 51.8611 12.3795M48.2275 13.1106H49.3528V14.2259H48.2275V13.1106ZM51.7662 14.6967H48.241V14.4985H51.7662V14.6967ZM51.7662 14.2382H49.6647V14.0276H51.7662V14.2382ZM51.7662 13.7797H49.6647V13.631H51.7662V13.7797ZM51.7662 13.3212H49.6647V13.1106H51.7662V13.3212Z" fill="white"/>
<path d="M5.49117 38.7494C5.41768 38.6526 5.31754 38.5753 5.20089 38.5253C5.08423 38.4752 4.9552 38.4542 4.82681 38.4643H1.11179C0.745715 38.4643 0.542338 38.5635 0.447429 38.7494C0.266358 39.0325 0.116481 39.3314 0 39.6416C0 39.8275 0.298286 39.9266 0.664364 39.9266H5.26068C5.62676 39.9266 5.91149 39.7903 5.92505 39.6416C5.81752 39.3302 5.67198 39.0309 5.49117 38.7494ZM3.41673 39.7407H2.42696C2.34561 39.7407 2.27782 39.7407 2.29138 39.6788C2.31566 39.6099 2.34746 39.5435 2.38629 39.4805C2.38629 39.4805 2.38629 39.4805 2.52187 39.4805H3.32182C3.34309 39.4716 3.36622 39.467 3.38961 39.467C3.41301 39.467 3.43614 39.4716 3.45741 39.4805C3.4981 39.5426 3.52999 39.6093 3.55232 39.6788C3.55232 39.6788 3.55231 39.7407 3.41673 39.7407Z" fill="white"/>
<path d="M4.82683 35.1185H1.11181C0.937936 35.1185 0.770976 35.1808 0.646766 35.292C0.522556 35.4032 0.450997 35.5545 0.447449 35.7134V37.6217C0.447449 37.7827 0.517444 37.9372 0.642036 38.0511C0.766629 38.1649 0.935612 38.2289 1.11181 38.2289H4.82683C5.00303 38.2289 5.17201 38.1649 5.29661 38.0511C5.4212 37.9372 5.49119 37.7827 5.49119 37.6217V35.7134C5.48765 35.5545 5.41609 35.4032 5.29188 35.292C5.16767 35.1808 5.0007 35.1185 4.82683 35.1185ZM1.19316 35.8497H2.31852V36.9649H1.19316V35.8497ZM4.73192 37.4358H1.22028V37.1756H4.74548L4.73192 37.4358ZM4.73192 36.9773H2.63036V36.7667H4.73192V36.9773ZM4.73192 36.5188H2.63036V36.3082H4.73192V36.5188ZM4.73192 36.0603H2.63036V35.8497H4.73192V36.0603Z" fill="white"/>
<path d="M52.5661 38.7494C52.5052 38.6525 52.4186 38.5711 52.3144 38.5127C52.2102 38.4543 52.0917 38.4206 51.9696 38.4148H48.1867C47.8207 38.4148 47.6173 38.5139 47.5224 38.6998C47.3413 38.9829 47.1914 39.2818 47.075 39.592C47.075 39.7779 47.3732 39.877 47.7393 39.877H52.3356C52.7017 39.877 52.9864 39.7407 53 39.592C52.8925 39.2807 52.7469 38.9814 52.5661 38.6998M50.4917 39.6911H49.5019C49.4206 39.6911 49.3528 39.6911 49.3663 39.6292C49.3906 39.5603 49.4224 39.4939 49.4612 39.4309C49.4612 39.4309 49.4612 39.4309 49.5968 39.4309H50.3968C50.418 39.422 50.4412 39.4174 50.4646 39.4174C50.488 39.4174 50.5111 39.422 50.5324 39.4309C50.5706 39.5015 50.598 39.5765 50.6137 39.654C50.6137 39.654 50.6137 39.7159 50.4781 39.7159" fill="white"/>
<path d="M51.9695 35.1185H48.1867C48.0128 35.1185 47.8459 35.1808 47.7217 35.292C47.5974 35.4032 47.5259 35.5545 47.5223 35.7134V37.6217C47.5223 37.7827 47.5923 37.9372 47.7169 38.0511C47.8415 38.1649 48.0105 38.2289 48.1867 38.2289H51.9695C52.1434 38.2257 52.3089 38.1603 52.4305 38.0467C52.5522 37.9332 52.6204 37.7806 52.6203 37.6217V35.7134C52.6168 35.5566 52.5472 35.4071 52.4259 35.2963C52.3046 35.1854 52.141 35.1217 51.9695 35.1185ZM48.3358 35.8497H49.4612V36.9649H48.3358V35.8497ZM51.8746 37.4358H48.2952V37.1756H51.8068L51.8746 37.4358ZM51.8746 36.9773H49.7053V36.7667H51.8068L51.8746 36.9773ZM51.8746 36.5188H49.7053V36.3082H51.8068L51.8746 36.5188ZM51.8746 36.0603H49.7053V35.8497H51.8068L51.8746 36.0603Z" fill="white"/>
<path d="M3.13198 18.5011H2.61676V34.5485H3.13198V18.5011Z" fill="white"/>
<path d="M50.451 17.7451H49.9358V34.5485H50.451V17.7451Z" fill="white"/>
<path d="M27.022 6.96423H26.5068V23.7676H27.022V6.96423Z" fill="white"/>
<path d="M31.5372 3.95479L31.2819 4.36378L45.1306 11.5862L45.3859 11.1772L31.5372 3.95479Z" fill="white"/>
<path d="M6.39353 41.5124L6.13818 41.9213L21.7769 50.0773L22.0322 49.6683L6.39353 41.5124Z" fill="white"/>
<path d="M31.8001 29.6756L31.5448 30.0846L45.2993 37.2579L45.5547 36.8489L31.8001 29.6756Z" fill="white"/>
<path d="M46.4242 41.7482L46.6818 42.1571L31.3065 50.2366L31.0489 49.8277L46.4242 41.7482Z" fill="white"/>
<path d="M22.1952 29.6537L22.4528 30.0627L7.06395 38.1422L6.80634 37.7332L22.1952 29.6537Z" fill="white"/>
<path d="M21.5986 3.9654L21.8562 4.37433L7.55204 11.8838L7.29443 11.4749L21.5986 3.9654Z" fill="white"/>
<path d="M23.9849 44.1646C23.9849 44.5364 23.5646 45.0568 22.8324 45.4781C22.0133 45.9456 21.0725 46.2047 20.1071 46.2287C19.1418 46.2527 18.1869 46.0406 17.3413 45.6144C15.8498 44.809 15.6193 43.6317 17.4769 42.5908C18.1371 42.2205 18.8866 42.0035 19.6598 41.9588L19.9987 42.7519C19.5185 42.8158 19.0574 42.9675 18.6429 43.198C17.8158 43.6565 17.6802 44.3381 18.6429 44.8957C19.134 45.1395 19.6862 45.2621 20.245 45.2512C20.8038 45.2403 21.3498 45.0964 21.8291 44.8338C22.1993 44.649 22.48 44.3438 22.6155 43.9787L23.9849 44.1646Z" fill="white"/>
<path d="M27.6593 40.2983C29.2456 41.1534 28.8389 42.0828 27.6593 42.7767C26.9737 43.1826 26.1778 43.4058 25.3611 43.4211C24.5443 43.4364 23.7391 43.2433 23.0358 42.8635L20.053 41.2525L21.2732 40.5586L23.9849 42.0332C24.3472 42.2789 24.7801 42.4227 25.2304 42.4469C25.6808 42.4711 26.1291 42.3747 26.5204 42.1695C27.2661 41.7482 26.9678 41.3393 26.1272 40.9303L23.3206 39.4185L24.5544 38.7246L27.6593 40.2983Z" fill="white"/>
<path d="M25.9373 37.9315C26.222 37.758 26.9406 37.3243 27.5237 36.9897C27.9559 36.6799 28.4737 36.4858 29.0195 36.4289C29.5652 36.372 30.1175 36.4546 30.615 36.6675C31.1573 36.9525 31.3065 37.2747 31.1573 37.6341C31.4816 37.5479 31.8215 37.5222 32.1569 37.5584C32.4923 37.5945 32.8163 37.6919 33.1097 37.8447C34.1944 38.4395 33.8283 39.1954 32.6623 39.8522C32.1471 40.1372 31.4149 40.5338 31.076 40.6949L25.9373 37.9315ZM28.2558 37.8323L29.1913 38.3404L29.5981 38.1174C29.9099 37.9439 30.0455 37.7332 29.5981 37.5225C29.4296 37.4512 29.2439 37.4205 29.0587 37.4335C28.8735 37.4465 28.6951 37.5028 28.5405 37.5969C28.4177 37.6685 28.3 37.7472 28.188 37.8323M30.1676 38.898L31.1302 39.4185C31.2921 39.3644 31.4467 39.2938 31.5912 39.2078C32.0657 38.9352 32.1064 38.6998 31.7539 38.5139C31.5757 38.4357 31.3771 38.4046 31.1805 38.4243C30.984 38.4441 30.7975 38.5137 30.6421 38.6254L30.1676 38.898Z" fill="white"/>
<path d="M30.6692 35.2672L33.8554 33.4704L34.9672 34.0776L33.0012 35.1681L33.9097 35.6638L35.6451 34.6972L36.7434 35.292L35.0215 36.271L35.9705 36.779L37.9908 35.6266L39.1026 36.2338L35.8485 38.0678L30.6692 35.2672Z" fill="white"/>
<path d="M15.8905 15.6509V11.4005L11.7823 13.5071L15.8905 15.6509Z" fill="white"/>
<path d="M11.4163 13.9656V31.5497L15.8906 29.2572V16.3077L11.4163 13.9656Z" fill="white"/>
<path d="M36.174 28.5261L40.2415 30.6451V18.0178L36.174 20.0996V28.5261Z" fill="white"/>
<path d="M31.659 9.23193V12.8628L36.174 15.242V19.48L40.2415 17.361L42.0177 18.2904L45.5293 16.4936L31.659 9.23193Z" fill="white"/>
<path d="M42.6278 18.6002L45.57 20.1368V17.0884L42.6278 18.6002Z" fill="white"/>
</svg>
